<svg viewBox="0 0 48 48" width="48" height="48" xmlns="http://www.w3.org/2000/svg">
  <rect width="48" height="48" rx="12" fill="#5f259f"/>
  <g transform="translate(5, 5) scale(0.8)">
    <path fill="#ffffff" d="m 34.5,17 c 0,-0.9 -0.8,-1.6 -1.6,-1.6 h -3.1 l -7.1,-8.2 c -0.6,-0.8 -1.6,-1 -2.7,-0.8 l -2.4,0.8 c -0.4,0.1 -0.5,0.6 -0.2,0.9 l 7.8,7.3 H 13 c -0.4,0 -0.6,0.2 -0.6,0.6 v 1.3 c 0,0.9 0.8,1.6 1.6,1.6 h 1.8 v 6.2 c 0,4.7 2.4,7.4 6.6,7.4 1.3,0 2.3,-0.1 3.6,-0.6 v 4.1 c 0,1.2 0.9,2 2,2 h 1.8 c 0.4,0 0.8,-0.4 0.8,-0.8 V 19.3 h 3c 0.4,0 0.6,-0.2 0.6,-0.6 V 17 z M 26.2,28.2 c -0.8,0.4 -1.8,0.5 -2.6,0.5 -2,0 -3.1,-1 -3.1,-3.4 v -6.2 h 5.7 z"/>
  </g>
</svg>